<svg width="183" height="88" viewBox="0 0 183 88" fill="none" xmlns="http://www.w3.org/2000/svg">
<path d="M3.86364 68V33.0909H13.5455V68H3.86364ZM8.72727 28.5909C7.28788 28.5909 6.05303 28.1136 5.02273 27.1591C4.00758 26.1894 3.5 25.0303 3.5 23.6818C3.5 22.3485 4.00758 21.2045 5.02273 20.25C6.05303 19.2803 7.28788 18.7955 8.72727 18.7955C10.1667 18.7955 11.3939 19.2803 12.4091 20.25C13.4394 21.2045 13.9545 22.3485 13.9545 23.6818C13.9545 25.0303 13.4394 26.1894 12.4091 27.1591C11.3939 28.1136 10.1667 28.5909 8.72727 28.5909ZM21.3011 68V33.0909H30.6875V39.1818H31.0511C31.6875 37.0152 32.7557 35.3788 34.2557 34.2727C35.7557 33.1515 37.483 32.5909 39.4375 32.5909C39.9223 32.5909 40.4451 32.6212 41.0057 32.6818C41.5663 32.7424 42.0587 32.8258 42.483 32.9318V41.5227C42.0284 41.3864 41.3996 41.2652 40.5966 41.1591C39.7936 41.053 39.0587 41 38.392 41C36.9678 41 35.6951 41.3106 34.5739 41.9318C33.4678 42.5379 32.589 43.3864 31.9375 44.4773C31.3011 45.5682 30.983 46.8258 30.983 48.25V68H21.3011ZM81.0966 33.0909L68.892 68H57.983L45.7784 33.0909H56.0057L63.2557 58.0682H63.6193L70.8466 33.0909H81.0966Z" fill="#353534"/>
<rect x="95" width="88" height="88" rx="8" fill="#353534"/>
<path d="M133.909 42.5455L125.045 43.0909C124.894 42.3333 124.568 41.6515 124.068 41.0455C123.568 40.4242 122.909 39.9318 122.091 39.5682C121.288 39.1894 120.326 39 119.205 39C117.705 39 116.439 39.3182 115.409 39.9545C114.379 40.5758 113.864 41.4091 113.864 42.4545C113.864 43.2879 114.197 43.9924 114.864 44.5682C115.53 45.1439 116.674 45.6061 118.295 45.9545L124.614 47.2273C128.008 47.9242 130.538 49.0455 132.205 50.5909C133.871 52.1364 134.705 54.1667 134.705 56.6818C134.705 58.9697 134.03 60.9773 132.682 62.7045C131.348 64.4318 129.515 65.7803 127.182 66.75C124.864 67.7045 122.189 68.1818 119.159 68.1818C114.538 68.1818 110.856 67.2197 108.114 65.2955C105.386 63.3561 103.788 60.7197 103.318 57.3864L112.841 56.8864C113.129 58.2955 113.826 59.3712 114.932 60.1136C116.038 60.8409 117.455 61.2045 119.182 61.2045C120.879 61.2045 122.242 60.8788 123.273 60.2273C124.318 59.5606 124.848 58.7045 124.864 57.6591C124.848 56.7803 124.477 56.0606 123.75 55.5C123.023 54.9242 121.902 54.4848 120.386 54.1818L114.341 52.9773C110.932 52.2955 108.394 51.1136 106.727 49.4318C105.076 47.75 104.25 45.6061 104.25 43C104.25 40.7576 104.856 38.8258 106.068 37.2045C107.295 35.5833 109.015 34.3333 111.227 33.4545C113.455 32.5758 116.061 32.1364 119.045 32.1364C123.455 32.1364 126.924 33.0682 129.455 34.9318C132 36.7955 133.485 39.3333 133.909 42.5455ZM150.483 47.3182V67.5H140.801V20.9545H150.21V38.75H150.619C151.407 36.6894 152.68 35.0758 154.438 33.9091C156.195 32.7273 158.4 32.1364 161.051 32.1364C163.475 32.1364 165.589 32.6667 167.392 33.7273C169.21 34.7727 170.619 36.2803 171.619 38.25C172.634 40.2045 173.134 42.5455 173.119 45.2727V67.5H163.438V47C163.453 44.8485 162.907 43.1742 161.801 41.9773C160.71 40.7803 159.18 40.1818 157.21 40.1818C155.892 40.1818 154.725 40.4621 153.71 41.0227C152.71 41.5833 151.922 42.4015 151.347 43.4773C150.786 44.5379 150.498 45.8182 150.483 47.3182Z" fill="white"/>
</svg>
